<?xml version="1.0" encoding="UTF-8"?>
<svg width="461px" height="473px" viewBox="0 0 461 473" version="1.1" xmlns="http://www.w3.org/2000/svg" xmlns:xlink="http://www.w3.org/1999/xlink">
    <!-- Generator: Sketch 45.2 (43514) - http://www.bohemiancoding.com/sketch -->
    <title>icon</title>
    <desc>Created with Sketch.</desc>
    <defs></defs>
    <g id="Page-1" stroke="none" stroke-width="1" fill="none" fill-rule="evenodd">
        <g id="icon" transform="translate(-11.000000, -5.000000)">
            <path d="M272.401699,10.0405708 L352.548439,36.0818251 L352.548439,36.0818251 C372.63278,42.6076229 390.135634,55.3241909 402.548439,72.4089515 L452.081848,140.58584 L452.081848,140.58584 C464.494653,157.670601 471.180149,178.24644 471.180149,199.364365 L471.180149,283.635635 L471.180149,283.635635 C471.180149,304.75356 464.494653,325.329399 452.081848,342.41416 L402.548439,410.591049 L402.548439,410.591049 C390.135634,427.675809 372.63278,440.392377 352.548439,446.918175 L272.401699,472.959429 L272.401699,472.959429 C252.317359,479.485227 230.682641,479.485227 210.598301,472.959429 L130.451561,446.918175 L130.451561,446.918175 C110.36722,440.392377 92.8643661,427.675809 80.451561,410.591049 L30.9181519,342.41416 L30.9181519,342.41416 C18.5053468,325.329399 11.8198513,304.75356 11.8198513,283.635635 L11.8198513,199.364365 L11.8198513,199.364365 C11.8198513,178.24644 18.5053468,157.670601 30.9181519,140.58584 L80.451561,72.4089515 L80.451561,72.4089515 C92.8643661,55.3241909 110.36722,42.6076229 130.451561,36.0818251 L210.598301,10.0405708 L210.598301,10.0405708 C230.682641,3.51477297 252.317359,3.51477297 272.401699,10.0405708 Z" id="Polygon" fill="#000000"></path>
            <text id="Jj" font-family="Avenir-Black, Avenir" font-size="300" font-weight="700" fill="#FFFFFF">
                <tspan x="103" y="325">Jj</tspan>
            </text>
        </g>
    </g>
</svg>